<svg xmlns="http://www.w3.org/2000/svg" xmlns:xlink="http://www.w3.org/1999/xlink" width="500" zoomAndPan="magnify" viewBox="0 0 375 374.999991" height="500" preserveAspectRatio="xMidYMid meet" version="1.0"><defs><g/><clipPath id="edb8dbd92d"><path d="M 249 113.125 L 286 113.125 L 286 153 L 249 153 Z M 249 113.125 " clip-rule="nonzero"/></clipPath><clipPath id="8ede014737"><path d="M 117 237 L 140 237 L 140 261.625 L 117 261.625 Z M 117 237 " clip-rule="nonzero"/></clipPath><clipPath id="587b767a61"><path d="M 225.515625 125.714844 L 357.515625 125.714844 L 357.515625 257.714844 L 225.515625 257.714844 Z M 225.515625 125.714844 " clip-rule="nonzero"/></clipPath><clipPath id="007a535346"><rect x="0" width="206" y="0" height="46"/></clipPath><clipPath id="40053b78de"><rect x="0" width="206" y="0" height="46"/></clipPath></defs><g clip-path="url(#edb8dbd92d)"><path fill="#000000" d="M 254.550781 131.089844 C 261.363281 127.84375 266.347656 121.179688 267.765625 113.125 C 269.179688 121.179688 274.136719 127.84375 280.980469 131.089844 C 282.308594 131.707031 285.609375 132.710938 285.609375 132.710938 C 285.609375 132.710938 282.308594 133.683594 280.980469 134.332031 C 274.164062 137.578125 269.179688 144.242188 267.765625 152.296875 C 266.347656 144.242188 261.394531 137.578125 254.550781 134.332031 C 253.222656 133.683594 249.921875 132.710938 249.921875 132.710938 C 249.921875 132.710938 253.222656 131.707031 254.550781 131.089844 Z M 254.550781 131.089844 " fill-opacity="1" fill-rule="nonzero"/></g><g clip-path="url(#8ede014737)"><path fill="#000000" d="M 120.523438 248.777344 C 124.742188 246.769531 127.808594 242.640625 128.664062 237.6875 C 129.519531 242.640625 132.617188 246.769531 136.804688 248.777344 C 137.632812 249.160156 139.667969 249.777344 139.667969 249.777344 C 139.667969 249.777344 137.632812 250.367188 136.804688 250.78125 C 132.585938 252.789062 129.519531 256.917969 128.664062 261.871094 C 127.808594 256.917969 124.710938 252.789062 120.523438 250.78125 C 119.699219 250.398438 117.664062 249.777344 117.664062 249.777344 C 117.664062 249.777344 119.699219 249.1875 120.523438 248.777344 Z M 120.523438 248.777344 " fill-opacity="1" fill-rule="nonzero"/></g><path fill="#000000" d="M 320.855469 139.257812 C 317.613281 131.472656 306.933594 127.3125 290.359375 127.046875 C 290.386719 127.3125 290.417969 127.578125 290.449219 127.84375 C 290.566406 128.464844 290.652344 129.054688 290.742188 129.671875 C 305.816406 129.96875 315.667969 133.625 318.4375 140.261719 C 322.125 149.082031 313.367188 163.0625 294.398438 178.605469 C 274.753906 194.710938 246.441406 210.875 214.671875 224.175781 C 189.984375 234.5 165.59375 242.050781 144.0625 246.210938 C 144.0625 247.09375 144.0625 248.007812 144.089844 248.894531 C 165.917969 244.734375 190.695312 237.09375 215.707031 226.625 C 247.707031 213.234375 276.261719 196.921875 296.109375 180.671875 C 316.285156 164.066406 325.074219 149.375 320.855469 139.257812 Z M 320.855469 139.257812 " fill-opacity="1" fill-rule="nonzero"/><path fill="#000000" d="M 245.230469 132.886719 C 226.292969 137.3125 205.617188 144.066406 184.765625 152.769531 C 152.761719 166.160156 124.210938 182.46875 104.359375 198.722656 C 84.125 215.296875 75.335938 229.988281 79.554688 240.132812 C 82.917969 248.1875 94.15625 252.402344 111.675781 252.402344 C 112 252.402344 112.324219 252.402344 112.648438 252.375 C 112.648438 251.667969 112.675781 250.929688 112.675781 250.222656 C 112.675781 250.042969 112.707031 249.898438 112.765625 249.75 C 95.925781 249.898438 84.953125 246.210938 81.972656 239.128906 C 78.285156 230.3125 87.046875 216.332031 106.011719 200.785156 C 125.65625 184.683594 153.972656 168.519531 185.738281 155.214844 C 206.265625 146.632812 226.648438 139.964844 245.289062 135.570312 C 245.289062 134.65625 245.261719 133.773438 245.230469 132.886719 Z M 245.230469 132.886719 " fill-opacity="1" fill-rule="nonzero"/><path fill="#000000" d="M 288.707031 252.402344 C 284.195312 252.402344 279.269531 252.136719 273.960938 251.546875 C 248.476562 248.835938 216.796875 239.984375 184.765625 226.59375 C 152.761719 213.203125 124.210938 196.894531 104.359375 180.640625 C 84.125 164.066406 75.335938 149.375 79.554688 139.230469 C 83.773438 129.113281 100.4375 125.042969 126.453125 127.816406 C 151.9375 130.527344 183.613281 139.375 215.648438 152.769531 C 247.648438 166.160156 276.199219 182.46875 296.050781 198.722656 C 316.285156 215.296875 325.074219 229.988281 320.855469 240.132812 C 317.496094 248.1875 306.257812 252.402344 288.707031 252.402344 Z M 111.792969 129.644531 C 95.511719 129.644531 84.921875 133.332031 82.03125 140.292969 C 78.34375 149.109375 87.105469 163.089844 106.070312 178.636719 C 125.714844 194.738281 154.03125 210.902344 185.796875 224.207031 C 217.5625 237.507812 248.976562 246.296875 274.253906 248.953125 C 298.648438 251.519531 314.75 247.949219 318.4375 239.128906 C 322.125 230.3125 313.367188 216.332031 294.398438 200.785156 C 274.753906 184.683594 246.441406 168.519531 214.671875 155.214844 C 182.878906 141.914062 151.492188 133.125 126.214844 130.46875 C 120.996094 129.910156 116.1875 129.644531 111.792969 129.644531 Z M 111.792969 129.644531 " fill-opacity="1" fill-rule="nonzero"/><g clip-path="url(#587b767a61)"><path fill="#000000" d="M 291.515625 125.714844 C 255.128906 125.714844 225.515625 155.324219 225.515625 191.714844 C 225.515625 228.101562 255.128906 257.714844 291.515625 257.714844 C 327.90625 257.714844 357.515625 228.101562 357.515625 191.714844 C 357.515625 155.324219 327.90625 125.714844 291.515625 125.714844 Z M 325.132812 225.328125 C 324.296875 226.210938 323.152344 226.648438 322.050781 226.648438 C 320.910156 226.648438 319.765625 226.210938 318.929688 225.328125 L 300.976562 207.378906 C 295.742188 211.25 289.535156 213.230469 283.289062 213.230469 C 275.675781 213.230469 268.066406 210.324219 262.300781 204.515625 C 250.683594 192.945312 250.683594 174.070312 262.300781 162.496094 C 273.871094 150.882812 292.703125 150.882812 304.320312 162.496094 C 314.878906 173.011719 315.804688 189.511719 307.179688 201.171875 L 325.132812 219.125 C 326.847656 220.839844 326.847656 223.613281 325.132812 225.328125 Z M 325.132812 225.328125 " fill-opacity="1" fill-rule="nonzero"/></g><path fill="#000000" d="M 283.289062 162.585938 C 277.964844 162.585938 272.597656 164.609375 268.503906 168.699219 C 260.363281 176.839844 260.363281 190.128906 268.503906 198.3125 C 276.644531 206.453125 289.933594 206.453125 298.117188 198.3125 C 306.257812 190.128906 306.257812 176.839844 298.117188 168.699219 C 294.023438 164.609375 288.65625 162.585938 283.289062 162.585938 Z M 283.289062 162.585938 " fill-opacity="1" fill-rule="nonzero"/><g transform="matrix(1, 0, 0, 1, 84, 164)"><g clip-path="url(#007a535346)"><g fill="#000000" fill-opacity="1"><g transform="translate(4.753961, 35.47453)"><g><path d="M 15.238281 -33.671875 L 25.015625 -33.671875 L 25.015625 -7.664062 C 25.015625 -5.863281 24.570312 -4.214844 23.679688 -2.726562 C 22.808594 -1.265625 21.640625 -0.0976562 20.175781 0.777344 C 18.6875 1.667969 17.039062 2.113281 15.238281 2.113281 L 7.621094 2.113281 C 5.816406 2.113281 4.171875 1.667969 2.679688 0.777344 C 1.21875 -0.0976562 0.0507812 -1.265625 -0.824219 -2.726562 C -1.714844 -4.214844 -2.160156 -5.863281 -2.160156 -7.664062 L -2.160156 -13.519531 L 9.734375 -13.519531 L 9.734375 -7.664062 L 7.621094 -7.664062 L 7.621094 -9.777344 L 15.238281 -9.777344 L 15.238281 -7.664062 L 13.125 -7.664062 L 13.125 -33.671875 Z M 15.238281 -29.445312 L 15.238281 -31.558594 L 17.351562 -31.558594 L 17.351562 -5.550781 L 5.503906 -5.550781 L 5.503906 -11.40625 L 7.621094 -11.40625 L 7.621094 -9.292969 L -0.046875 -9.292969 L -0.046875 -11.40625 L 2.066406 -11.40625 L 2.066406 -7.664062 C 2.066406 -6.640625 2.3125 -5.71875 2.804688 -4.894531 C 3.316406 -4.042969 3.996094 -3.359375 4.847656 -2.851562 C 5.671875 -2.359375 6.59375 -2.113281 7.621094 -2.113281 L 15.238281 -2.113281 C 16.261719 -2.113281 17.1875 -2.359375 18.007812 -2.851562 C 18.863281 -3.359375 19.542969 -4.042969 20.050781 -4.894531 C 20.542969 -5.71875 20.789062 -6.640625 20.789062 -7.664062 L 20.789062 -31.558594 L 22.902344 -31.558594 L 22.902344 -29.445312 Z M 15.238281 -29.445312 "/></g></g></g><g fill="#000000" fill-opacity="1"><g transform="translate(29.093314, 35.47453)"><g><path d="M 15.554688 -33.671875 C 17.355469 -33.671875 19 -33.226562 20.492188 -32.335938 C 21.953125 -31.460938 23.121094 -30.296875 23.996094 -28.832031 C 24.886719 -27.34375 25.332031 -25.695312 25.332031 -23.894531 L 25.332031 -7.664062 C 25.332031 -5.863281 24.886719 -4.214844 23.996094 -2.726562 C 23.121094 -1.265625 21.953125 -0.0976562 20.492188 0.777344 C 19 1.667969 17.355469 2.113281 15.554688 2.113281 L 8.882812 2.113281 C 7.082031 2.113281 5.433594 1.667969 3.941406 0.777344 C 2.480469 -0.0976562 1.3125 -1.265625 0.441406 -2.726562 C -0.449219 -4.214844 -0.894531 -5.863281 -0.894531 -7.664062 L -0.894531 -23.894531 C -0.894531 -25.695312 -0.449219 -27.34375 0.441406 -28.832031 C 1.3125 -30.296875 2.480469 -31.460938 3.941406 -32.335938 C 5.433594 -33.226562 7.082031 -33.671875 8.882812 -33.671875 Z M 15.554688 -29.445312 L 8.882812 -29.445312 C 7.859375 -29.445312 6.933594 -29.199219 6.109375 -28.707031 C 5.257812 -28.199219 4.578125 -27.519531 4.070312 -26.664062 C 3.578125 -25.84375 3.332031 -24.917969 3.332031 -23.894531 L 3.332031 -7.664062 C 3.332031 -6.640625 3.578125 -5.71875 4.070312 -4.894531 C 4.578125 -4.042969 5.257812 -3.359375 6.109375 -2.851562 C 6.933594 -2.359375 7.859375 -2.113281 8.882812 -2.113281 L 15.554688 -2.113281 C 16.578125 -2.113281 17.5 -2.359375 18.324219 -2.851562 C 19.175781 -3.359375 19.859375 -4.042969 20.367188 -4.894531 C 20.859375 -5.71875 21.105469 -6.640625 21.105469 -7.664062 L 21.105469 -23.894531 C 21.105469 -24.917969 20.859375 -25.84375 20.367188 -26.664062 C 19.859375 -27.519531 19.175781 -28.199219 18.324219 -28.707031 C 17.5 -29.199219 16.578125 -29.445312 15.554688 -29.445312 Z M 8.882812 -9.777344 L 15.554688 -9.777344 L 15.554688 -7.664062 L 13.441406 -7.664062 L 13.441406 -23.894531 L 15.554688 -23.894531 L 15.554688 -21.78125 L 8.882812 -21.78125 L 8.882812 -23.894531 L 10.996094 -23.894531 L 10.996094 -7.664062 L 8.882812 -7.664062 Z M 6.769531 -5.550781 L 6.769531 -26.007812 L 17.667969 -26.007812 L 17.667969 -5.550781 Z M 6.769531 -5.550781 "/></g></g></g><g fill="#000000" fill-opacity="1"><g transform="translate(53.522802, 35.47453)"><g><path d="M 22.453125 -18.714844 C 23.457031 -17.828125 24.246094 -16.761719 24.820312 -15.515625 C 25.402344 -14.257812 25.691406 -12.917969 25.691406 -11.496094 L 25.691406 -7.664062 C 25.691406 -5.863281 25.246094 -4.214844 24.355469 -2.726562 C 23.484375 -1.265625 22.316406 -0.0976562 20.851562 0.777344 C 19.363281 1.667969 17.714844 2.113281 15.914062 2.113281 L -0.535156 2.113281 L -0.535156 -33.671875 L 14.019531 -33.671875 C 15.824219 -33.671875 17.46875 -33.226562 18.960938 -32.335938 C 20.429688 -31.460938 21.589844 -30.285156 22.449219 -28.816406 C 23.320312 -27.328125 23.753906 -25.6875 23.753906 -23.894531 L 23.753906 -20.0625 C 23.753906 -18.757812 23.503906 -17.507812 23.003906 -16.316406 L 21.054688 -17.132812 Z M 19.652344 -15.550781 L 18.519531 -16.550781 L 19.105469 -17.949219 C 19.386719 -18.621094 19.527344 -19.324219 19.527344 -20.0625 L 19.527344 -23.894531 C 19.527344 -24.925781 19.285156 -25.855469 18.800781 -26.683594 C 18.308594 -27.527344 17.636719 -28.203125 16.792969 -28.707031 C 15.96875 -29.199219 15.046875 -29.445312 14.019531 -29.445312 L 1.578125 -29.445312 L 1.578125 -31.558594 L 3.691406 -31.558594 L 3.691406 0 L 1.578125 0 L 1.578125 -2.113281 L 15.914062 -2.113281 C 16.9375 -2.113281 17.863281 -2.359375 18.683594 -2.851562 C 19.539062 -3.359375 20.21875 -4.042969 20.726562 -4.894531 C 21.21875 -5.71875 21.464844 -6.640625 21.464844 -7.664062 L 21.464844 -11.496094 C 21.464844 -12.300781 21.304688 -13.046875 20.984375 -13.746094 C 20.65625 -14.453125 20.214844 -15.054688 19.652344 -15.550781 Z M 11.355469 -23.894531 L 11.355469 -19.117188 L 9.242188 -19.117188 L 9.242188 -21.230469 L 14.019531 -21.230469 L 14.019531 -19.117188 L 11.90625 -19.117188 L 11.90625 -23.894531 L 14.019531 -23.894531 L 14.019531 -21.78125 L 9.242188 -21.78125 L 9.242188 -23.894531 Z M 7.128906 -26.007812 L 16.132812 -26.007812 L 16.132812 -17.003906 L 7.128906 -17.003906 Z M 9.242188 -9.777344 L 15.914062 -9.777344 L 15.914062 -7.664062 L 13.800781 -7.664062 L 13.800781 -11.496094 L 15.914062 -11.496094 L 15.914062 -9.382812 L 9.242188 -9.382812 L 9.242188 -11.496094 L 11.355469 -11.496094 L 11.355469 -7.664062 L 9.242188 -7.664062 Z M 7.128906 -5.550781 L 7.128906 -13.609375 L 18.027344 -13.609375 L 18.027344 -5.550781 Z M 7.128906 -5.550781 "/></g></g></g><g fill="#000000" fill-opacity="1"><g transform="translate(77.772004, 35.47453)"><g><path d="M 9.0625 -9.777344 L 22.582031 -9.777344 L 22.582031 2.113281 L -0.714844 2.113281 L -0.714844 -23.894531 C -0.714844 -25.695312 -0.269531 -27.34375 0.621094 -28.832031 C 1.492188 -30.296875 2.660156 -31.460938 4.125 -32.335938 C 5.613281 -33.226562 7.261719 -33.671875 9.0625 -33.671875 L 11.175781 -33.671875 L 11.175781 -7.664062 L 9.0625 -7.664062 Z M 6.949219 -5.550781 L 6.949219 -31.558594 L 9.0625 -31.558594 L 9.0625 -29.445312 C 8.039062 -29.445312 7.113281 -29.199219 6.292969 -28.707031 C 5.4375 -28.199219 4.757812 -27.519531 4.25 -26.664062 C 3.757812 -25.84375 3.511719 -24.917969 3.511719 -23.894531 L 3.511719 0 L 1.398438 0 L 1.398438 -2.113281 L 20.46875 -2.113281 L 20.46875 0 L 18.355469 0 L 18.355469 -7.664062 L 20.46875 -7.664062 L 20.46875 -5.550781 Z M 6.949219 -5.550781 "/></g></g></g><g fill="#000000" fill-opacity="1"><g transform="translate(98.144936, 35.47453)"><g><path d="M 26.242188 -30.539062 L 17.539062 -14.757812 L 15.6875 -15.78125 L 17.800781 -15.78125 L 17.800781 2.203125 L 5.910156 2.203125 L 5.910156 -15.78125 L 8.023438 -15.78125 L 6.175781 -14.757812 L -4.253906 -33.671875 L 8.238281 -33.671875 L 13.710938 -23.691406 L 11.855469 -22.675781 L 10.003906 -23.691406 L 15.476562 -33.671875 L 27.96875 -33.671875 Z M 22.539062 -32.578125 L 24.390625 -31.558594 L 24.390625 -29.445312 L 16.726562 -29.445312 L 16.726562 -31.558594 L 18.578125 -30.542969 L 11.855469 -18.28125 L 5.136719 -30.542969 L 6.988281 -31.558594 L 6.988281 -29.445312 L -0.675781 -29.445312 L -0.675781 -31.558594 L 1.175781 -32.578125 L 10.136719 -16.324219 L 10.136719 0.0898438 L 8.023438 0.0898438 L 8.023438 -2.023438 L 15.6875 -2.023438 L 15.6875 0.0898438 L 13.574219 0.0898438 L 13.574219 -16.324219 Z M 22.539062 -32.578125 "/></g></g></g><g fill="#000000" fill-opacity="1"><g transform="translate(121.898334, 35.47453)"><g><path d="M 0.449219 -33.671875 L 26.820312 -33.671875 L 26.820312 -31.558594 C 26.820312 -29.757812 26.375 -28.109375 25.484375 -26.621094 C 24.609375 -25.160156 23.441406 -23.992188 21.980469 -23.117188 C 20.488281 -22.226562 18.84375 -21.78125 17.042969 -21.78125 L 15.914062 -21.78125 L 15.914062 -23.894531 L 18.027344 -23.894531 L 18.027344 2.113281 L 6.183594 2.113281 L 6.183594 -23.894531 L 8.296875 -23.894531 L 8.296875 -21.78125 L -1.664062 -21.78125 L -1.664062 -33.671875 Z M 0.449219 -29.445312 L 0.449219 -31.558594 L 2.5625 -31.558594 L 2.5625 -23.894531 L 0.449219 -23.894531 L 0.449219 -26.007812 L 10.410156 -26.007812 L 10.410156 0 L 8.296875 0 L 8.296875 -2.113281 L 15.914062 -2.113281 L 15.914062 0 L 13.800781 0 L 13.800781 -26.007812 L 17.042969 -26.007812 C 18.066406 -26.007812 18.988281 -26.253906 19.8125 -26.746094 C 20.664062 -27.253906 21.347656 -27.9375 21.855469 -28.789062 C 22.347656 -29.613281 22.59375 -30.535156 22.59375 -31.558594 L 24.707031 -31.558594 L 24.707031 -29.445312 Z M 0.449219 -29.445312 "/></g></g></g><g fill="#000000" fill-opacity="1"><g transform="translate(146.147535, 35.47453)"><g><path d="M 6.492188 -33.671875 L 11.265625 -33.671875 L 11.265625 2.113281 L -0.625 2.113281 L -0.625 -26.554688 C -0.625 -27.839844 -0.304688 -29.03125 0.34375 -30.128906 C 0.976562 -31.210938 1.835938 -32.066406 2.917969 -32.703125 C 4.015625 -33.351562 5.207031 -33.671875 6.492188 -33.671875 Z M 6.492188 -29.445312 C 5.972656 -29.445312 5.496094 -29.316406 5.0625 -29.0625 C 4.609375 -28.796875 4.25 -28.4375 3.984375 -27.984375 C 3.730469 -27.550781 3.601562 -27.074219 3.601562 -26.554688 L 3.601562 0 L 1.488281 0 L 1.488281 -2.113281 L 9.152344 -2.113281 L 9.152344 0 L 7.039062 0 L 7.039062 -31.558594 L 9.152344 -31.558594 L 9.152344 -29.445312 Z M 6.492188 -29.445312 "/></g></g></g><g fill="#000000" fill-opacity="1"><g transform="translate(156.874871, 35.47453)"><g><path d="M 20.199219 -21.78125 L 8.882812 -21.78125 L 8.882812 -23.894531 L 10.996094 -23.894531 L 10.996094 -7.664062 L 8.882812 -7.664062 L 8.882812 -9.777344 L 22.3125 -9.777344 L 22.3125 2.113281 L 8.882812 2.113281 C 7.082031 2.113281 5.433594 1.667969 3.941406 0.777344 C 2.480469 -0.0976562 1.3125 -1.265625 0.441406 -2.726562 C -0.449219 -4.214844 -0.894531 -5.863281 -0.894531 -7.664062 L -0.894531 -23.894531 C -0.894531 -25.695312 -0.449219 -27.34375 0.441406 -28.832031 C 1.3125 -30.296875 2.480469 -31.460938 3.941406 -32.335938 C 5.433594 -33.226562 7.082031 -33.671875 8.882812 -33.671875 L 22.3125 -33.671875 L 22.3125 -21.78125 Z M 20.199219 -26.007812 L 20.199219 -23.894531 L 18.085938 -23.894531 L 18.085938 -31.558594 L 20.199219 -31.558594 L 20.199219 -29.445312 L 8.882812 -29.445312 C 7.859375 -29.445312 6.933594 -29.199219 6.109375 -28.707031 C 5.257812 -28.199219 4.578125 -27.519531 4.070312 -26.664062 C 3.578125 -25.84375 3.332031 -24.917969 3.332031 -23.894531 L 3.332031 -7.664062 C 3.332031 -6.640625 3.578125 -5.71875 4.070312 -4.894531 C 4.578125 -4.042969 5.257812 -3.359375 6.109375 -2.851562 C 6.933594 -2.359375 7.859375 -2.113281 8.882812 -2.113281 L 20.199219 -2.113281 L 20.199219 0 L 18.085938 0 L 18.085938 -7.664062 L 20.199219 -7.664062 L 20.199219 -5.550781 L 6.769531 -5.550781 L 6.769531 -26.007812 Z M 20.199219 -26.007812 "/></g></g></g><g fill="#000000" fill-opacity="1"><g transform="translate(177.698529, 35.47453)"><g><path d="M 8.835938 -33.671875 L 25.285156 -33.671875 L 25.285156 -19.390625 L 13.394531 -19.390625 L 13.394531 -23.894531 L 15.507812 -23.894531 L 15.507812 -21.78125 L 8.835938 -21.78125 L 8.835938 -23.894531 L 10.949219 -23.894531 L 10.949219 -19.117188 L 8.835938 -19.117188 L 8.835938 -21.230469 L 25.285156 -21.230469 L 25.285156 -7.664062 C 25.285156 -5.863281 24.839844 -4.214844 23.949219 -2.726562 C 23.078125 -1.265625 21.910156 -0.0976562 20.449219 0.777344 C 18.957031 1.667969 17.308594 2.113281 15.507812 2.113281 L -0.941406 2.113281 L -0.941406 -11.671875 L 10.949219 -11.671875 L 10.949219 -7.664062 L 8.835938 -7.664062 L 8.835938 -9.777344 L 15.507812 -9.777344 L 15.507812 -7.664062 L 13.394531 -7.664062 L 13.394531 -11.496094 L 15.507812 -11.496094 L 15.507812 -9.382812 L 8.835938 -9.382812 C 7.042969 -9.382812 5.402344 -9.816406 3.914062 -10.6875 C 2.445312 -11.546875 1.273438 -12.707031 0.394531 -14.175781 C -0.496094 -15.667969 -0.941406 -17.3125 -0.941406 -19.117188 L -0.941406 -23.894531 C -0.941406 -25.695312 -0.496094 -27.34375 0.394531 -28.832031 C 1.269531 -30.296875 2.4375 -31.460938 3.898438 -32.335938 C 5.390625 -33.226562 7.035156 -33.671875 8.835938 -33.671875 Z M 8.835938 -29.445312 C 7.8125 -29.445312 6.890625 -29.199219 6.066406 -28.707031 C 5.214844 -28.199219 4.53125 -27.519531 4.023438 -26.664062 C 3.53125 -25.84375 3.285156 -24.917969 3.285156 -23.894531 L 3.285156 -19.117188 C 3.285156 -18.09375 3.53125 -17.167969 4.023438 -16.34375 C 4.527344 -15.5 5.203125 -14.828125 6.046875 -14.335938 C 6.875 -13.851562 7.804688 -13.609375 8.835938 -13.609375 L 17.621094 -13.609375 L 17.621094 -5.550781 L 6.722656 -5.550781 L 6.722656 -9.558594 L 8.835938 -9.558594 L 8.835938 -7.445312 L 1.171875 -7.445312 L 1.171875 -9.558594 L 3.285156 -9.558594 L 3.285156 0 L 1.171875 0 L 1.171875 -2.113281 L 15.507812 -2.113281 C 16.53125 -2.113281 17.457031 -2.359375 18.28125 -2.851562 C 19.132812 -3.359375 19.8125 -4.042969 20.320312 -4.894531 C 20.8125 -5.71875 21.058594 -6.640625 21.058594 -7.664062 L 21.058594 -19.117188 L 23.171875 -19.117188 L 23.171875 -17.003906 L 6.722656 -17.003906 L 6.722656 -26.007812 L 17.621094 -26.007812 L 17.621094 -21.503906 L 15.507812 -21.503906 L 15.507812 -23.617188 L 23.171875 -23.617188 L 23.171875 -21.503906 L 21.058594 -21.503906 L 21.058594 -31.558594 L 23.171875 -31.558594 L 23.171875 -29.445312 Z M 8.835938 -29.445312 "/></g></g></g><g fill="#000000" fill-opacity="1"><g transform="translate(4.753961, 35.47453)"><g><path d="M 15.234375 -31.546875 L 22.90625 -31.546875 L 22.90625 -7.65625 C 22.90625 -6.25 22.554688 -4.96875 21.859375 -3.8125 C 21.171875 -2.65625 20.25 -1.726562 19.09375 -1.03125 C 17.9375 -0.34375 16.648438 0 15.234375 0 L 7.625 0 C 6.207031 0 4.921875 -0.34375 3.765625 -1.03125 C 2.609375 -1.726562 1.679688 -2.65625 0.984375 -3.8125 C 0.296875 -4.96875 -0.046875 -6.25 -0.046875 -7.65625 L -0.046875 -11.40625 L 7.625 -11.40625 L 7.625 -7.65625 L 15.234375 -7.65625 Z M 15.234375 -31.546875 "/></g></g></g><g fill="#000000" fill-opacity="1"><g transform="translate(29.093314, 35.47453)"><g><path d="M 15.546875 -31.546875 C 16.960938 -31.546875 18.25 -31.203125 19.40625 -30.515625 C 20.5625 -29.828125 21.484375 -28.90625 22.171875 -27.75 C 22.867188 -26.59375 23.21875 -25.304688 23.21875 -23.890625 L 23.21875 -7.65625 C 23.21875 -6.25 22.867188 -4.96875 22.171875 -3.8125 C 21.484375 -2.65625 20.5625 -1.726562 19.40625 -1.03125 C 18.25 -0.34375 16.960938 0 15.546875 0 L 8.875 0 C 7.46875 0 6.1875 -0.34375 5.03125 -1.03125 C 3.875 -1.726562 2.945312 -2.65625 2.25 -3.8125 C 1.5625 -4.96875 1.21875 -6.25 1.21875 -7.65625 L 1.21875 -23.890625 C 1.21875 -25.304688 1.5625 -26.59375 2.25 -27.75 C 2.945312 -28.90625 3.875 -29.828125 5.03125 -30.515625 C 6.1875 -31.203125 7.46875 -31.546875 8.875 -31.546875 Z M 8.875 -7.65625 L 15.546875 -7.65625 L 15.546875 -23.890625 L 8.875 -23.890625 Z M 8.875 -7.65625 "/></g></g></g><g fill="#000000" fill-opacity="1"><g transform="translate(53.522802, 35.47453)"><g><path d="M 21.046875 -17.125 C 21.828125 -16.4375 22.441406 -15.601562 22.890625 -14.625 C 23.347656 -13.644531 23.578125 -12.601562 23.578125 -11.5 L 23.578125 -7.65625 C 23.578125 -6.25 23.226562 -4.96875 22.53125 -3.8125 C 21.84375 -2.65625 20.921875 -1.726562 19.765625 -1.03125 C 18.609375 -0.34375 17.320312 0 15.90625 0 L 1.578125 0 L 1.578125 -31.546875 L 14.015625 -31.546875 C 15.429688 -31.546875 16.71875 -31.203125 17.875 -30.515625 C 19.03125 -29.828125 19.945312 -28.90625 20.625 -27.75 C 21.300781 -26.59375 21.640625 -25.304688 21.640625 -23.890625 L 21.640625 -20.0625 C 21.640625 -19.039062 21.441406 -18.0625 21.046875 -17.125 Z M 9.234375 -23.890625 L 9.234375 -19.109375 L 14.015625 -19.109375 L 14.015625 -23.890625 Z M 9.234375 -7.65625 L 15.90625 -7.65625 L 15.90625 -11.5 L 9.234375 -11.5 Z M 9.234375 -7.65625 "/></g></g></g><g fill="#000000" fill-opacity="1"><g transform="translate(77.772004, 35.47453)"><g><path d="M 9.0625 -7.65625 L 20.46875 -7.65625 L 20.46875 0 L 1.390625 0 L 1.390625 -23.890625 C 1.390625 -25.304688 1.734375 -26.59375 2.421875 -27.75 C 3.117188 -28.90625 4.046875 -29.828125 5.203125 -30.515625 C 6.359375 -31.203125 7.644531 -31.546875 9.0625 -31.546875 Z M 9.0625 -7.65625 "/></g></g></g><g fill="#000000" fill-opacity="1"><g transform="translate(98.144936, 35.47453)"><g><path d="M 24.390625 -31.546875 L 15.6875 -15.78125 L 15.6875 0.09375 L 8.03125 0.09375 L 8.03125 -15.78125 L -0.671875 -31.546875 L 6.984375 -31.546875 L 11.859375 -22.671875 L 16.71875 -31.546875 Z M 24.390625 -31.546875 "/></g></g></g><g fill="#000000" fill-opacity="1"><g transform="translate(121.898334, 35.47453)"><g><path d="M 0.453125 -31.546875 L 24.703125 -31.546875 C 24.703125 -30.140625 24.351562 -28.859375 23.65625 -27.703125 C 22.96875 -26.546875 22.046875 -25.617188 20.890625 -24.921875 C 19.734375 -24.234375 18.453125 -23.890625 17.046875 -23.890625 L 15.90625 -23.890625 L 15.90625 0 L 8.296875 0 L 8.296875 -23.890625 L 0.453125 -23.890625 Z M 0.453125 -31.546875 "/></g></g></g><g fill="#000000" fill-opacity="1"><g transform="translate(146.147535, 35.47453)"><g><path d="M 6.484375 -31.546875 L 9.15625 -31.546875 L 9.15625 0 L 1.484375 0 L 1.484375 -26.546875 C 1.484375 -27.453125 1.707031 -28.285156 2.15625 -29.046875 C 2.613281 -29.816406 3.222656 -30.425781 3.984375 -30.875 C 4.753906 -31.320312 5.585938 -31.546875 6.484375 -31.546875 Z M 6.484375 -31.546875 "/></g></g></g><g fill="#000000" fill-opacity="1"><g transform="translate(156.874871, 35.47453)"><g><path d="M 20.1875 -23.890625 L 8.875 -23.890625 L 8.875 -7.65625 L 20.1875 -7.65625 L 20.1875 0 L 8.875 0 C 7.46875 0 6.1875 -0.34375 5.03125 -1.03125 C 3.875 -1.726562 2.945312 -2.65625 2.25 -3.8125 C 1.5625 -4.96875 1.21875 -6.25 1.21875 -7.65625 L 1.21875 -23.890625 C 1.21875 -25.304688 1.5625 -26.59375 2.25 -27.75 C 2.945312 -28.90625 3.875 -29.828125 5.03125 -30.515625 C 6.1875 -31.203125 7.46875 -31.546875 8.875 -31.546875 L 20.1875 -31.546875 Z M 20.1875 -23.890625 "/></g></g></g><g fill="#000000" fill-opacity="1"><g transform="translate(177.698529, 35.47453)"><g><path d="M 8.828125 -31.546875 L 23.171875 -31.546875 L 23.171875 -21.5 L 15.5 -21.5 L 15.5 -23.890625 L 8.828125 -23.890625 L 8.828125 -19.109375 L 23.171875 -19.109375 L 23.171875 -7.65625 C 23.171875 -6.25 22.820312 -4.96875 22.125 -3.8125 C 21.4375 -2.65625 20.515625 -1.726562 19.359375 -1.03125 C 18.203125 -0.34375 16.914062 0 15.5 0 L 1.171875 0 L 1.171875 -9.5625 L 8.828125 -9.5625 L 8.828125 -7.65625 L 15.5 -7.65625 L 15.5 -11.5 L 8.828125 -11.5 C 7.421875 -11.5 6.140625 -11.832031 4.984375 -12.5 C 3.828125 -13.175781 2.898438 -14.09375 2.203125 -15.25 C 1.515625 -16.414062 1.171875 -17.703125 1.171875 -19.109375 L 1.171875 -23.890625 C 1.171875 -25.304688 1.515625 -26.59375 2.203125 -27.75 C 2.898438 -28.90625 3.828125 -29.828125 4.984375 -30.515625 C 6.140625 -31.203125 7.421875 -31.546875 8.828125 -31.546875 Z M 8.828125 -31.546875 "/></g></g></g></g></g><g transform="matrix(1, 0, 0, 1, 87, 164)"><g clip-path="url(#40053b78de)"><g fill="#000000" fill-opacity="1"><g transform="translate(4.576217, 35.47453)"><g><path d="M 15.238281 -33.671875 L 25.015625 -33.671875 L 25.015625 -7.664062 C 25.015625 -5.863281 24.570312 -4.214844 23.679688 -2.726562 C 22.808594 -1.265625 21.640625 -0.0976562 20.175781 0.777344 C 18.6875 1.667969 17.039062 2.113281 15.238281 2.113281 L 7.621094 2.113281 C 5.816406 2.113281 4.171875 1.667969 2.679688 0.777344 C 1.21875 -0.0976562 0.0507812 -1.265625 -0.824219 -2.726562 C -1.714844 -4.214844 -2.160156 -5.863281 -2.160156 -7.664062 L -2.160156 -13.519531 L 9.734375 -13.519531 L 9.734375 -7.664062 L 7.621094 -7.664062 L 7.621094 -9.777344 L 15.238281 -9.777344 L 15.238281 -7.664062 L 13.125 -7.664062 L 13.125 -33.671875 Z M 15.238281 -29.445312 L 15.238281 -31.558594 L 17.351562 -31.558594 L 17.351562 -5.550781 L 5.503906 -5.550781 L 5.503906 -11.40625 L 7.621094 -11.40625 L 7.621094 -9.292969 L -0.046875 -9.292969 L -0.046875 -11.40625 L 2.066406 -11.40625 L 2.066406 -7.664062 C 2.066406 -6.640625 2.3125 -5.71875 2.804688 -4.894531 C 3.316406 -4.042969 3.996094 -3.359375 4.847656 -2.851562 C 5.671875 -2.359375 6.59375 -2.113281 7.621094 -2.113281 L 15.238281 -2.113281 C 16.261719 -2.113281 17.1875 -2.359375 18.007812 -2.851562 C 18.863281 -3.359375 19.542969 -4.042969 20.050781 -4.894531 C 20.542969 -5.71875 20.789062 -6.640625 20.789062 -7.664062 L 20.789062 -31.558594 L 22.902344 -31.558594 L 22.902344 -29.445312 Z M 15.238281 -29.445312 "/></g></g></g><g fill="#000000" fill-opacity="1"><g transform="translate(28.91557, 35.47453)"><g><path d="M 15.554688 -33.671875 C 17.355469 -33.671875 19 -33.226562 20.492188 -32.335938 C 21.953125 -31.460938 23.121094 -30.296875 23.996094 -28.832031 C 24.886719 -27.34375 25.332031 -25.695312 25.332031 -23.894531 L 25.332031 -7.664062 C 25.332031 -5.863281 24.886719 -4.214844 23.996094 -2.726562 C 23.121094 -1.265625 21.953125 -0.0976562 20.492188 0.777344 C 19 1.667969 17.355469 2.113281 15.554688 2.113281 L 8.882812 2.113281 C 7.082031 2.113281 5.433594 1.667969 3.941406 0.777344 C 2.480469 -0.0976562 1.3125 -1.265625 0.441406 -2.726562 C -0.449219 -4.214844 -0.894531 -5.863281 -0.894531 -7.664062 L -0.894531 -23.894531 C -0.894531 -25.695312 -0.449219 -27.34375 0.441406 -28.832031 C 1.3125 -30.296875 2.480469 -31.460938 3.941406 -32.335938 C 5.433594 -33.226562 7.082031 -33.671875 8.882812 -33.671875 Z M 15.554688 -29.445312 L 8.882812 -29.445312 C 7.859375 -29.445312 6.933594 -29.199219 6.109375 -28.707031 C 5.257812 -28.199219 4.578125 -27.519531 4.070312 -26.664062 C 3.578125 -25.84375 3.332031 -24.917969 3.332031 -23.894531 L 3.332031 -7.664062 C 3.332031 -6.640625 3.578125 -5.71875 4.070312 -4.894531 C 4.578125 -4.042969 5.257812 -3.359375 6.109375 -2.851562 C 6.933594 -2.359375 7.859375 -2.113281 8.882812 -2.113281 L 15.554688 -2.113281 C 16.578125 -2.113281 17.5 -2.359375 18.324219 -2.851562 C 19.175781 -3.359375 19.859375 -4.042969 20.367188 -4.894531 C 20.859375 -5.71875 21.105469 -6.640625 21.105469 -7.664062 L 21.105469 -23.894531 C 21.105469 -24.917969 20.859375 -25.84375 20.367188 -26.664062 C 19.859375 -27.519531 19.175781 -28.199219 18.324219 -28.707031 C 17.5 -29.199219 16.578125 -29.445312 15.554688 -29.445312 Z M 8.882812 -9.777344 L 15.554688 -9.777344 L 15.554688 -7.664062 L 13.441406 -7.664062 L 13.441406 -23.894531 L 15.554688 -23.894531 L 15.554688 -21.78125 L 8.882812 -21.78125 L 8.882812 -23.894531 L 10.996094 -23.894531 L 10.996094 -7.664062 L 8.882812 -7.664062 Z M 6.769531 -5.550781 L 6.769531 -26.007812 L 17.667969 -26.007812 L 17.667969 -5.550781 Z M 6.769531 -5.550781 "/></g></g></g><g fill="#000000" fill-opacity="1"><g transform="translate(53.345058, 35.47453)"><g><path d="M 22.453125 -18.714844 C 23.457031 -17.828125 24.246094 -16.761719 24.820312 -15.515625 C 25.402344 -14.257812 25.691406 -12.917969 25.691406 -11.496094 L 25.691406 -7.664062 C 25.691406 -5.863281 25.246094 -4.214844 24.355469 -2.726562 C 23.484375 -1.265625 22.316406 -0.0976562 20.851562 0.777344 C 19.363281 1.667969 17.714844 2.113281 15.914062 2.113281 L -0.535156 2.113281 L -0.535156 -33.671875 L 14.019531 -33.671875 C 15.824219 -33.671875 17.46875 -33.226562 18.960938 -32.335938 C 20.429688 -31.460938 21.589844 -30.285156 22.449219 -28.816406 C 23.320312 -27.328125 23.753906 -25.6875 23.753906 -23.894531 L 23.753906 -20.0625 C 23.753906 -18.757812 23.503906 -17.507812 23.003906 -16.316406 L 21.054688 -17.132812 Z M 19.652344 -15.550781 L 18.519531 -16.550781 L 19.105469 -17.949219 C 19.386719 -18.621094 19.527344 -19.324219 19.527344 -20.0625 L 19.527344 -23.894531 C 19.527344 -24.925781 19.285156 -25.855469 18.800781 -26.683594 C 18.308594 -27.527344 17.636719 -28.203125 16.792969 -28.707031 C 15.96875 -29.199219 15.046875 -29.445312 14.019531 -29.445312 L 1.578125 -29.445312 L 1.578125 -31.558594 L 3.691406 -31.558594 L 3.691406 0 L 1.578125 0 L 1.578125 -2.113281 L 15.914062 -2.113281 C 16.9375 -2.113281 17.863281 -2.359375 18.683594 -2.851562 C 19.539062 -3.359375 20.21875 -4.042969 20.726562 -4.894531 C 21.21875 -5.71875 21.464844 -6.640625 21.464844 -7.664062 L 21.464844 -11.496094 C 21.464844 -12.300781 21.304688 -13.046875 20.984375 -13.746094 C 20.65625 -14.453125 20.214844 -15.054688 19.652344 -15.550781 Z M 11.355469 -23.894531 L 11.355469 -19.117188 L 9.242188 -19.117188 L 9.242188 -21.230469 L 14.019531 -21.230469 L 14.019531 -19.117188 L 11.90625 -19.117188 L 11.90625 -23.894531 L 14.019531 -23.894531 L 14.019531 -21.78125 L 9.242188 -21.78125 L 9.242188 -23.894531 Z M 7.128906 -26.007812 L 16.132812 -26.007812 L 16.132812 -17.003906 L 7.128906 -17.003906 Z M 9.242188 -9.777344 L 15.914062 -9.777344 L 15.914062 -7.664062 L 13.800781 -7.664062 L 13.800781 -11.496094 L 15.914062 -11.496094 L 15.914062 -9.382812 L 9.242188 -9.382812 L 9.242188 -11.496094 L 11.355469 -11.496094 L 11.355469 -7.664062 L 9.242188 -7.664062 Z M 7.128906 -5.550781 L 7.128906 -13.609375 L 18.027344 -13.609375 L 18.027344 -5.550781 Z M 7.128906 -5.550781 "/></g></g></g><g fill="#000000" fill-opacity="1"><g transform="translate(77.594259, 35.47453)"><g><path d="M 9.0625 -9.777344 L 22.582031 -9.777344 L 22.582031 2.113281 L -0.714844 2.113281 L -0.714844 -23.894531 C -0.714844 -25.695312 -0.269531 -27.34375 0.621094 -28.832031 C 1.492188 -30.296875 2.660156 -31.460938 4.125 -32.335938 C 5.613281 -33.226562 7.261719 -33.671875 9.0625 -33.671875 L 11.175781 -33.671875 L 11.175781 -7.664062 L 9.0625 -7.664062 Z M 6.949219 -5.550781 L 6.949219 -31.558594 L 9.0625 -31.558594 L 9.0625 -29.445312 C 8.039062 -29.445312 7.113281 -29.199219 6.292969 -28.707031 C 5.4375 -28.199219 4.757812 -27.519531 4.25 -26.664062 C 3.757812 -25.84375 3.511719 -24.917969 3.511719 -23.894531 L 3.511719 0 L 1.398438 0 L 1.398438 -2.113281 L 20.46875 -2.113281 L 20.46875 0 L 18.355469 0 L 18.355469 -7.664062 L 20.46875 -7.664062 L 20.46875 -5.550781 Z M 6.949219 -5.550781 "/></g></g></g><g fill="#000000" fill-opacity="1"><g transform="translate(97.967192, 35.47453)"><g><path d="M 26.242188 -30.539062 L 17.539062 -14.757812 L 15.6875 -15.78125 L 17.800781 -15.78125 L 17.800781 2.203125 L 5.910156 2.203125 L 5.910156 -15.78125 L 8.023438 -15.78125 L 6.175781 -14.757812 L -4.253906 -33.671875 L 8.238281 -33.671875 L 13.710938 -23.691406 L 11.855469 -22.675781 L 10.003906 -23.691406 L 15.476562 -33.671875 L 27.96875 -33.671875 Z M 22.539062 -32.578125 L 24.390625 -31.558594 L 24.390625 -29.445312 L 16.726562 -29.445312 L 16.726562 -31.558594 L 18.578125 -30.542969 L 11.855469 -18.28125 L 5.136719 -30.542969 L 6.988281 -31.558594 L 6.988281 -29.445312 L -0.675781 -29.445312 L -0.675781 -31.558594 L 1.175781 -32.578125 L 10.136719 -16.324219 L 10.136719 0.0898438 L 8.023438 0.0898438 L 8.023438 -2.023438 L 15.6875 -2.023438 L 15.6875 0.0898438 L 13.574219 0.0898438 L 13.574219 -16.324219 Z M 22.539062 -32.578125 "/></g></g></g><g fill="#000000" fill-opacity="1"><g transform="translate(121.720589, 35.47453)"><g><path d="M 0.449219 -33.671875 L 26.820312 -33.671875 L 26.820312 -31.558594 C 26.820312 -29.757812 26.375 -28.109375 25.484375 -26.621094 C 24.609375 -25.160156 23.441406 -23.992188 21.980469 -23.117188 C 20.488281 -22.226562 18.84375 -21.78125 17.042969 -21.78125 L 15.914062 -21.78125 L 15.914062 -23.894531 L 18.027344 -23.894531 L 18.027344 2.113281 L 6.183594 2.113281 L 6.183594 -23.894531 L 8.296875 -23.894531 L 8.296875 -21.78125 L -1.664062 -21.78125 L -1.664062 -33.671875 Z M 0.449219 -29.445312 L 0.449219 -31.558594 L 2.5625 -31.558594 L 2.5625 -23.894531 L 0.449219 -23.894531 L 0.449219 -26.007812 L 10.410156 -26.007812 L 10.410156 0 L 8.296875 0 L 8.296875 -2.113281 L 15.914062 -2.113281 L 15.914062 0 L 13.800781 0 L 13.800781 -26.007812 L 17.042969 -26.007812 C 18.066406 -26.007812 18.988281 -26.253906 19.8125 -26.746094 C 20.664062 -27.253906 21.347656 -27.9375 21.855469 -28.789062 C 22.347656 -29.613281 22.59375 -30.535156 22.59375 -31.558594 L 24.707031 -31.558594 L 24.707031 -29.445312 Z M 0.449219 -29.445312 "/></g></g></g><g fill="#000000" fill-opacity="1"><g transform="translate(145.969791, 35.47453)"><g><path d="M 6.492188 -33.671875 L 11.265625 -33.671875 L 11.265625 2.113281 L -0.625 2.113281 L -0.625 -26.554688 C -0.625 -27.839844 -0.304688 -29.03125 0.34375 -30.128906 C 0.976562 -31.210938 1.835938 -32.066406 2.917969 -32.703125 C 4.015625 -33.351562 5.207031 -33.671875 6.492188 -33.671875 Z M 6.492188 -29.445312 C 5.972656 -29.445312 5.496094 -29.316406 5.0625 -29.0625 C 4.609375 -28.796875 4.25 -28.4375 3.984375 -27.984375 C 3.730469 -27.550781 3.601562 -27.074219 3.601562 -26.554688 L 3.601562 0 L 1.488281 0 L 1.488281 -2.113281 L 9.152344 -2.113281 L 9.152344 0 L 7.039062 0 L 7.039062 -31.558594 L 9.152344 -31.558594 L 9.152344 -29.445312 Z M 6.492188 -29.445312 "/></g></g></g><g fill="#000000" fill-opacity="1"><g transform="translate(156.697127, 35.47453)"><g><path d="M 20.199219 -21.78125 L 8.882812 -21.78125 L 8.882812 -23.894531 L 10.996094 -23.894531 L 10.996094 -7.664062 L 8.882812 -7.664062 L 8.882812 -9.777344 L 22.3125 -9.777344 L 22.3125 2.113281 L 8.882812 2.113281 C 7.082031 2.113281 5.433594 1.667969 3.941406 0.777344 C 2.480469 -0.0976562 1.3125 -1.265625 0.441406 -2.726562 C -0.449219 -4.214844 -0.894531 -5.863281 -0.894531 -7.664062 L -0.894531 -23.894531 C -0.894531 -25.695312 -0.449219 -27.34375 0.441406 -28.832031 C 1.3125 -30.296875 2.480469 -31.460938 3.941406 -32.335938 C 5.433594 -33.226562 7.082031 -33.671875 8.882812 -33.671875 L 22.3125 -33.671875 L 22.3125 -21.78125 Z M 20.199219 -26.007812 L 20.199219 -23.894531 L 18.085938 -23.894531 L 18.085938 -31.558594 L 20.199219 -31.558594 L 20.199219 -29.445312 L 8.882812 -29.445312 C 7.859375 -29.445312 6.933594 -29.199219 6.109375 -28.707031 C 5.257812 -28.199219 4.578125 -27.519531 4.070312 -26.664062 C 3.578125 -25.84375 3.332031 -24.917969 3.332031 -23.894531 L 3.332031 -7.664062 C 3.332031 -6.640625 3.578125 -5.71875 4.070312 -4.894531 C 4.578125 -4.042969 5.257812 -3.359375 6.109375 -2.851562 C 6.933594 -2.359375 7.859375 -2.113281 8.882812 -2.113281 L 20.199219 -2.113281 L 20.199219 0 L 18.085938 0 L 18.085938 -7.664062 L 20.199219 -7.664062 L 20.199219 -5.550781 L 6.769531 -5.550781 L 6.769531 -26.007812 Z M 20.199219 -26.007812 "/></g></g></g><g fill="#000000" fill-opacity="1"><g transform="translate(177.520785, 35.47453)"><g><path d="M 8.835938 -33.671875 L 25.285156 -33.671875 L 25.285156 -19.390625 L 13.394531 -19.390625 L 13.394531 -23.894531 L 15.507812 -23.894531 L 15.507812 -21.78125 L 8.835938 -21.78125 L 8.835938 -23.894531 L 10.949219 -23.894531 L 10.949219 -19.117188 L 8.835938 -19.117188 L 8.835938 -21.230469 L 25.285156 -21.230469 L 25.285156 -7.664062 C 25.285156 -5.863281 24.839844 -4.214844 23.949219 -2.726562 C 23.078125 -1.265625 21.910156 -0.0976562 20.449219 0.777344 C 18.957031 1.667969 17.308594 2.113281 15.507812 2.113281 L -0.941406 2.113281 L -0.941406 -11.671875 L 10.949219 -11.671875 L 10.949219 -7.664062 L 8.835938 -7.664062 L 8.835938 -9.777344 L 15.507812 -9.777344 L 15.507812 -7.664062 L 13.394531 -7.664062 L 13.394531 -11.496094 L 15.507812 -11.496094 L 15.507812 -9.382812 L 8.835938 -9.382812 C 7.042969 -9.382812 5.402344 -9.816406 3.914062 -10.6875 C 2.445312 -11.546875 1.273438 -12.707031 0.394531 -14.175781 C -0.496094 -15.667969 -0.941406 -17.3125 -0.941406 -19.117188 L -0.941406 -23.894531 C -0.941406 -25.695312 -0.496094 -27.34375 0.394531 -28.832031 C 1.269531 -30.296875 2.4375 -31.460938 3.898438 -32.335938 C 5.390625 -33.226562 7.035156 -33.671875 8.835938 -33.671875 Z M 8.835938 -29.445312 C 7.8125 -29.445312 6.890625 -29.199219 6.066406 -28.707031 C 5.214844 -28.199219 4.53125 -27.519531 4.023438 -26.664062 C 3.53125 -25.84375 3.285156 -24.917969 3.285156 -23.894531 L 3.285156 -19.117188 C 3.285156 -18.09375 3.53125 -17.167969 4.023438 -16.34375 C 4.527344 -15.5 5.203125 -14.828125 6.046875 -14.335938 C 6.875 -13.851562 7.804688 -13.609375 8.835938 -13.609375 L 17.621094 -13.609375 L 17.621094 -5.550781 L 6.722656 -5.550781 L 6.722656 -9.558594 L 8.835938 -9.558594 L 8.835938 -7.445312 L 1.171875 -7.445312 L 1.171875 -9.558594 L 3.285156 -9.558594 L 3.285156 0 L 1.171875 0 L 1.171875 -2.113281 L 15.507812 -2.113281 C 16.53125 -2.113281 17.457031 -2.359375 18.28125 -2.851562 C 19.132812 -3.359375 19.8125 -4.042969 20.320312 -4.894531 C 20.8125 -5.71875 21.058594 -6.640625 21.058594 -7.664062 L 21.058594 -19.117188 L 23.171875 -19.117188 L 23.171875 -17.003906 L 6.722656 -17.003906 L 6.722656 -26.007812 L 17.621094 -26.007812 L 17.621094 -21.503906 L 15.507812 -21.503906 L 15.507812 -23.617188 L 23.171875 -23.617188 L 23.171875 -21.503906 L 21.058594 -21.503906 L 21.058594 -31.558594 L 23.171875 -31.558594 L 23.171875 -29.445312 Z M 8.835938 -29.445312 "/></g></g></g><g fill="#ffffff" fill-opacity="1"><g transform="translate(4.576217, 35.47453)"><g><path d="M 15.234375 -31.546875 L 22.90625 -31.546875 L 22.90625 -7.65625 C 22.90625 -6.25 22.554688 -4.96875 21.859375 -3.8125 C 21.171875 -2.65625 20.25 -1.726562 19.09375 -1.03125 C 17.9375 -0.34375 16.648438 0 15.234375 0 L 7.625 0 C 6.207031 0 4.921875 -0.34375 3.765625 -1.03125 C 2.609375 -1.726562 1.679688 -2.65625 0.984375 -3.8125 C 0.296875 -4.96875 -0.046875 -6.25 -0.046875 -7.65625 L -0.046875 -11.40625 L 7.625 -11.40625 L 7.625 -7.65625 L 15.234375 -7.65625 Z M 15.234375 -31.546875 "/></g></g></g><g fill="#ffffff" fill-opacity="1"><g transform="translate(28.91557, 35.47453)"><g><path d="M 15.546875 -31.546875 C 16.960938 -31.546875 18.25 -31.203125 19.40625 -30.515625 C 20.5625 -29.828125 21.484375 -28.90625 22.171875 -27.75 C 22.867188 -26.59375 23.21875 -25.304688 23.21875 -23.890625 L 23.21875 -7.65625 C 23.21875 -6.25 22.867188 -4.96875 22.171875 -3.8125 C 21.484375 -2.65625 20.5625 -1.726562 19.40625 -1.03125 C 18.25 -0.34375 16.960938 0 15.546875 0 L 8.875 0 C 7.46875 0 6.1875 -0.34375 5.03125 -1.03125 C 3.875 -1.726562 2.945312 -2.65625 2.25 -3.8125 C 1.5625 -4.96875 1.21875 -6.25 1.21875 -7.65625 L 1.21875 -23.890625 C 1.21875 -25.304688 1.5625 -26.59375 2.25 -27.75 C 2.945312 -28.90625 3.875 -29.828125 5.03125 -30.515625 C 6.1875 -31.203125 7.46875 -31.546875 8.875 -31.546875 Z M 8.875 -7.65625 L 15.546875 -7.65625 L 15.546875 -23.890625 L 8.875 -23.890625 Z M 8.875 -7.65625 "/></g></g></g><g fill="#ffffff" fill-opacity="1"><g transform="translate(53.345058, 35.47453)"><g><path d="M 21.046875 -17.125 C 21.828125 -16.4375 22.441406 -15.601562 22.890625 -14.625 C 23.347656 -13.644531 23.578125 -12.601562 23.578125 -11.5 L 23.578125 -7.65625 C 23.578125 -6.25 23.226562 -4.96875 22.53125 -3.8125 C 21.84375 -2.65625 20.921875 -1.726562 19.765625 -1.03125 C 18.609375 -0.34375 17.320312 0 15.90625 0 L 1.578125 0 L 1.578125 -31.546875 L 14.015625 -31.546875 C 15.429688 -31.546875 16.71875 -31.203125 17.875 -30.515625 C 19.03125 -29.828125 19.945312 -28.90625 20.625 -27.75 C 21.300781 -26.59375 21.640625 -25.304688 21.640625 -23.890625 L 21.640625 -20.0625 C 21.640625 -19.039062 21.441406 -18.0625 21.046875 -17.125 Z M 9.234375 -23.890625 L 9.234375 -19.109375 L 14.015625 -19.109375 L 14.015625 -23.890625 Z M 9.234375 -7.65625 L 15.90625 -7.65625 L 15.90625 -11.5 L 9.234375 -11.5 Z M 9.234375 -7.65625 "/></g></g></g><g fill="#ffffff" fill-opacity="1"><g transform="translate(77.594259, 35.47453)"><g><path d="M 9.0625 -7.65625 L 20.46875 -7.65625 L 20.46875 0 L 1.390625 0 L 1.390625 -23.890625 C 1.390625 -25.304688 1.734375 -26.59375 2.421875 -27.75 C 3.117188 -28.90625 4.046875 -29.828125 5.203125 -30.515625 C 6.359375 -31.203125 7.644531 -31.546875 9.0625 -31.546875 Z M 9.0625 -7.65625 "/></g></g></g><g fill="#ffffff" fill-opacity="1"><g transform="translate(97.967192, 35.47453)"><g><path d="M 24.390625 -31.546875 L 15.6875 -15.78125 L 15.6875 0.09375 L 8.03125 0.09375 L 8.03125 -15.78125 L -0.671875 -31.546875 L 6.984375 -31.546875 L 11.859375 -22.671875 L 16.71875 -31.546875 Z M 24.390625 -31.546875 "/></g></g></g><g fill="#ffffff" fill-opacity="1"><g transform="translate(121.720589, 35.47453)"><g><path d="M 0.453125 -31.546875 L 24.703125 -31.546875 C 24.703125 -30.140625 24.351562 -28.859375 23.65625 -27.703125 C 22.96875 -26.546875 22.046875 -25.617188 20.890625 -24.921875 C 19.734375 -24.234375 18.453125 -23.890625 17.046875 -23.890625 L 15.90625 -23.890625 L 15.90625 0 L 8.296875 0 L 8.296875 -23.890625 L 0.453125 -23.890625 Z M 0.453125 -31.546875 "/></g></g></g><g fill="#ffffff" fill-opacity="1"><g transform="translate(145.969791, 35.47453)"><g><path d="M 6.484375 -31.546875 L 9.15625 -31.546875 L 9.15625 0 L 1.484375 0 L 1.484375 -26.546875 C 1.484375 -27.453125 1.707031 -28.285156 2.15625 -29.046875 C 2.613281 -29.816406 3.222656 -30.425781 3.984375 -30.875 C 4.753906 -31.320312 5.585938 -31.546875 6.484375 -31.546875 Z M 6.484375 -31.546875 "/></g></g></g><g fill="#ffffff" fill-opacity="1"><g transform="translate(156.697127, 35.47453)"><g><path d="M 20.1875 -23.890625 L 8.875 -23.890625 L 8.875 -7.65625 L 20.1875 -7.65625 L 20.1875 0 L 8.875 0 C 7.46875 0 6.1875 -0.34375 5.03125 -1.03125 C 3.875 -1.726562 2.945312 -2.65625 2.25 -3.8125 C 1.5625 -4.96875 1.21875 -6.25 1.21875 -7.65625 L 1.21875 -23.890625 C 1.21875 -25.304688 1.5625 -26.59375 2.25 -27.75 C 2.945312 -28.90625 3.875 -29.828125 5.03125 -30.515625 C 6.1875 -31.203125 7.46875 -31.546875 8.875 -31.546875 L 20.1875 -31.546875 Z M 20.1875 -23.890625 "/></g></g></g><g fill="#ffffff" fill-opacity="1"><g transform="translate(177.520785, 35.47453)"><g><path d="M 8.828125 -31.546875 L 23.171875 -31.546875 L 23.171875 -21.5 L 15.5 -21.5 L 15.5 -23.890625 L 8.828125 -23.890625 L 8.828125 -19.109375 L 23.171875 -19.109375 L 23.171875 -7.65625 C 23.171875 -6.25 22.820312 -4.96875 22.125 -3.8125 C 21.4375 -2.65625 20.515625 -1.726562 19.359375 -1.03125 C 18.203125 -0.34375 16.914062 0 15.5 0 L 1.171875 0 L 1.171875 -9.5625 L 8.828125 -9.5625 L 8.828125 -7.65625 L 15.5 -7.65625 L 15.5 -11.5 L 8.828125 -11.5 C 7.421875 -11.5 6.140625 -11.832031 4.984375 -12.5 C 3.828125 -13.175781 2.898438 -14.09375 2.203125 -15.25 C 1.515625 -16.414062 1.171875 -17.703125 1.171875 -19.109375 L 1.171875 -23.890625 C 1.171875 -25.304688 1.515625 -26.59375 2.203125 -27.75 C 2.898438 -28.90625 3.828125 -29.828125 4.984375 -30.515625 C 6.140625 -31.203125 7.421875 -31.546875 8.828125 -31.546875 Z M 8.828125 -31.546875 "/></g></g></g></g></g></svg>